<svg xmlns="http://www.w3.org/2000/svg" viewBox="0 0 120 120" fill="none" x="0px" y="0px">
    <path d="M103.235 51.2432H95.235C93.575 51.2432 92.235 52.5832 92.235 54.2432V55.5532L67.855 43.6632L76.935 30.6832C77.435 29.9732 77.625 29.1132 77.475 28.2632C77.325 27.4032 76.855 26.6632 76.145 26.1732L69.595 21.5832C68.135 20.5632 66.105 20.9132 65.065 22.3832L50.115 43.7432L37.315 48.1632C33.055 49.6432 29.425 52.3732 26.835 56.0532L15.375 72.4332C13.675 74.8532 13.255 78.4632 15.835 80.3832C16.005 80.5132 16.175 80.6232 16.355 80.7432L16.445 80.8032C17.915 81.7332 19.625 82.2232 21.385 82.2232C22.035 82.2232 22.685 82.1432 23.315 82.0032L22.615 83.0132C22.335 83.4032 22.145 83.8832 22.055 84.4132L20.745 93.2632C20.565 94.4932 21.085 95.6932 22.105 96.4032C22.665 96.7932 23.305 96.9932 23.955 96.9932C24.485 96.9932 25.015 96.8632 25.505 96.5932L33.385 92.3232C33.815 92.0832 34.195 91.7432 34.495 91.3332L37.435 87.1232V91.7232C37.435 95.7232 40.685 98.9732 44.685 98.9732C47.175 98.9732 49.375 97.7132 50.685 95.7832C51.995 97.7032 54.195 98.9732 56.685 98.9732C60.685 98.9732 63.935 95.7232 63.935 91.7232V87.7232C69.005 89.5732 74.205 91.1832 79.515 91.1832C84.195 91.1832 88.615 89.6832 92.235 86.9632V88.2332C92.235 89.8932 93.575 91.2332 95.235 91.2332H103.235C104.895 91.2332 106.235 89.8932 106.235 88.2332V54.2332C106.235 52.5732 104.895 51.2332 103.235 51.2332V51.2432ZM39.825 67.4932C38.275 67.4932 36.795 67.9832 35.555 68.8932L60.665 33.0232L68.445 38.4732L48.125 67.5032H39.825V67.4932ZM67.105 23.8132C67.345 23.4732 67.825 23.3832 68.155 23.6232L74.705 28.2132C74.865 28.3232 74.975 28.4932 75.005 28.6932C75.035 28.8932 75.005 29.0832 74.885 29.2532L69.865 36.4132L62.085 30.9632L67.095 23.8132H67.105ZM26.975 76.7632C26.925 76.8332 26.875 76.9032 26.795 77.0032C25.505 78.7232 23.535 79.7132 21.385 79.7132C20.095 79.7132 18.855 79.3532 17.735 78.6432C17.605 78.5532 17.475 78.4732 17.335 78.3632C16.015 77.3832 16.385 75.3032 17.415 73.8432L28.875 57.4632C31.155 54.2132 34.355 51.8032 38.115 50.4932L47.665 47.2032L26.975 76.7532V76.7632ZM32.455 89.8832C32.385 89.9832 32.285 90.0632 32.185 90.1232L24.315 94.3832C23.945 94.5832 23.645 94.4232 23.535 94.3432C23.425 94.2632 23.155 94.0332 23.225 93.6132L24.535 84.7832C24.555 84.6532 24.605 84.5332 24.665 84.4432L32.875 72.7132C32.695 73.3632 32.595 74.0332 32.595 74.7232C32.595 78.1332 34.965 80.9932 38.145 81.7632L32.465 89.8732L32.455 89.8832ZM44.685 96.4732C42.065 96.4732 39.935 94.3432 39.935 91.7232V83.5532L41.035 81.9832H42.695C44.935 81.9832 47.185 82.3032 49.435 82.8232V91.7232C49.435 94.3432 47.305 96.4732 44.685 96.4732ZM61.435 91.7232C61.435 94.3432 59.305 96.4732 56.685 96.4732C54.065 96.4732 51.935 94.3432 51.935 91.7232V83.4732C54.865 84.3132 57.785 85.4132 60.655 86.5032C60.915 86.6032 61.175 86.6932 61.435 86.7932V91.7232ZM79.515 88.6832C73.505 88.6832 67.425 86.3832 61.535 84.1632C55.445 81.8632 49.145 79.4832 42.695 79.4832H39.825C37.205 79.4832 35.075 77.3532 35.075 74.7332C35.075 73.4632 35.565 72.2632 36.455 71.3732C37.355 70.4832 38.555 69.9832 39.825 69.9832H62.415C68.585 69.9832 74.315 66.4031 77.015 60.8531L74.765 59.7532C72.475 64.4432 67.625 67.4832 62.405 67.4832H51.165L66.395 45.7332L92.225 58.3332V83.7132C88.795 86.9032 84.305 88.6832 79.505 88.6832H79.515Z" fill="#0066A1"/>
</svg>